<svg xmlns="http://www.w3.org/2000/svg" viewBox="0 0 366.73 74.7"><defs><style>.cls-1{fill:#dbdbdc}.cls-2{fill:#ddaa4f}.cls-3{fill:#d45867}.cls-4{fill:#7367aa}</style></defs><title>logo-light</title><g id="Слой_2" data-name="Слой 2"><g id="Слой_1-2" data-name="Слой 1"><path class="cls-1" d="M120 71.73q-4.54 0-6.59-1.56a6.23 6.23 0 0 1-2.49-3.79 13.1 13.1 0 0 1-4.36 4.62q-2.67 1.69-7.66 1.69a10.94 10.94 0 0 1-5.26-1.11 9.13 9.13 0 0 1-3.3-3 11.89 11.89 0 0 1-1.74-4.23 23.85 23.85 0 0 1-.49-4.86 37.91 37.91 0 0 1 .71-8 9.62 9.62 0 0 1 2.94-5.26 13.41 13.41 0 0 1 6.42-2.85 58.51 58.51 0 0 1 11.14-.85v-3.59q0-2.49-.18-4.32a7.78 7.78 0 0 0-.85-3 3.9 3.9 0 0 0-1.92-1.74 8.77 8.77 0 0 0-3.39-.53 7.91 7.91 0 0 0-3 .49 4.37 4.37 0 0 0-1.87 1.47 6.46 6.46 0 0 0-1 2.63 36.84 36.84 0 0 0-.49 3.87l-7-.62a49 49 0 0 1 .85-6.5 11.35 11.35 0 0 1 2-4.59 7.88 7.88 0 0 1 3.87-2.67 21 21 0 0 1 6.59-.85 21.75 21.75 0 0 1 7.48 1.07 9.51 9.51 0 0 1 4.46 3.25 12.46 12.46 0 0 1 2.14 5.44 47 47 0 0 1 .53 7.53v22.5q0 2.58 1 3.21a4.27 4.27 0 0 0 2.27.62zm-10.68-24.24a57.82 57.82 0 0 0-6.86.76 8 8 0 0 0-3.92 1.69 6 6 0 0 0-1.78 3.34 29.08 29.08 0 0 0-.45 5.7 12.5 12.5 0 0 0 1 5.61q1 1.87 3.74 1.87a7.07 7.07 0 0 0 5.48-2.18 12.91 12.91 0 0 0 2.81-6.46zM145.67 71.73l-6.24-26.55-6.5 8.73v17.82h-8.37V1.51L132.93 0v44.11l11.76-20.76h9.8l-9.71 13.9 10.87 34.48zM159.66 13.45V1.87H168v11.58zm0 58.27V23.34H168v48.39zM201.36 71.73l-5.88-35.55-6.06 35.55h-7.66l-9.36-48.39h8.6L186.13 58l5.61-34.66h7.48L204.75 58l5.17-34.66h7.66L208 71.73zM249.83 71.73q-4.54 0-6.59-1.56a6.23 6.23 0 0 1-2.49-3.79 13.1 13.1 0 0 1-4.37 4.62q-2.67 1.69-7.66 1.69a10.94 10.94 0 0 1-5.26-1.11 9.13 9.13 0 0 1-3.3-3 11.89 11.89 0 0 1-1.74-4.23 23.85 23.85 0 0 1-.49-4.86 37.91 37.91 0 0 1 .71-8 9.62 9.62 0 0 1 2.94-5.26 13.41 13.41 0 0 1 6.42-2.79 58.51 58.51 0 0 1 11.14-.85v-3.65q0-2.49-.18-4.32a7.78 7.78 0 0 0-.85-3 3.9 3.9 0 0 0-1.92-1.74 8.77 8.77 0 0 0-3.39-.53 7.91 7.91 0 0 0-3 .49 4.37 4.37 0 0 0-1.87 1.47 6.46 6.46 0 0 0-1 2.63 36.84 36.84 0 0 0-.49 3.87l-7-.62a49 49 0 0 1 .85-6.5 11.35 11.35 0 0 1 2-4.59 7.88 7.88 0 0 1 3.71-2.71 21 21 0 0 1 6.59-.85 21.75 21.75 0 0 1 7.48 1.07 9.51 9.51 0 0 1 4.46 3.25 12.46 12.46 0 0 1 2.14 5.44 47 47 0 0 1 .53 7.53v22.54q0 2.58 1 3.21a4.27 4.27 0 0 0 2.27.62zm-10.69-24.24a57.82 57.82 0 0 0-6.86.76 8 8 0 0 0-3.92 1.69 6 6 0 0 0-1.78 3.34 29.08 29.08 0 0 0-.45 5.7 12.5 12.5 0 0 0 1 5.61q1 1.87 3.74 1.87a7.07 7.07 0 0 0 5.48-2.18 12.91 12.91 0 0 0 2.81-6.46zM273.09 34.84a10.19 10.19 0 0 0-1.38-4.32q-.94-1.29-4-1.29a6.78 6.78 0 0 0-4.1 1.11q-1.52 1.12-1.51 4.05a9.34 9.34 0 0 0 1 4.54 9.61 9.61 0 0 0 3.9 3.48q2.94 1.61 5.39 2.9a18.75 18.75 0 0 1 4.19 2.94 11.46 11.46 0 0 1 2.72 4.05 16.76 16.76 0 0 1 1 6.24q0 7-3.34 10.65T266 72.88q-6.77 0-10.07-3.47t-3.3-11.58l7.22-1.07a24.3 24.3 0 0 0 .27 3.7 10.38 10.38 0 0 0 .94 3.07 5.23 5.23 0 0 0 1.83 2.09 5.44 5.44 0 0 0 3 .76q4.28 0 5.61-1.87a8.76 8.76 0 0 0 1.34-5.17q0-4-2-6.06a19.39 19.39 0 0 0-5.57-3.74 38.32 38.32 0 0 1-4.66-2.54 14.87 14.87 0 0 1-3.43-3 12.45 12.45 0 0 1-2.18-4 16.68 16.68 0 0 1-.76-5.35 19.81 19.81 0 0 1 .58-5 8.87 8.87 0 0 1 2-3.83 9.35 9.35 0 0 1 3.87-2.45 18.82 18.82 0 0 1 6.15-.85 27.19 27.19 0 0 1 6 .54 7 7 0 0 1 5.57 5.26 48.59 48.59 0 0 1 1.16 5.26zM307.12 66.29a10.82 10.82 0 0 1-3.83 4.1 12.3 12.3 0 0 1-6.95 1.78 9.84 9.84 0 0 1-7.48-2.81q-2.67-2.81-2.67-9V29.31h-3.65l.62-6h3V11.14l8.37-1.43v13.63h12.12l-.71 6h-11.4v30a6.74 6.74 0 0 0 1.25 4.32 3.48 3.48 0 0 0 2.67 1.56 4.37 4.37 0 0 0 3.07-1 10 10 0 0 0 2.09-3.07zM341.25 71.73q-4.54 0-6.59-1.56a6.23 6.23 0 0 1-2.49-3.79 13.1 13.1 0 0 1-4.38 4.62q-2.67 1.69-7.66 1.69a10.94 10.94 0 0 1-5.26-1.11 9.13 9.13 0 0 1-3.3-3 11.89 11.89 0 0 1-1.74-4.23 23.85 23.85 0 0 1-.49-4.86 37.91 37.91 0 0 1 .71-8 9.62 9.62 0 0 1 2.95-5.2 13.41 13.41 0 0 1 6.42-2.85 58.51 58.51 0 0 1 11.14-.85v-3.65q0-2.49-.18-4.32a7.78 7.78 0 0 0-.85-3 3.9 3.9 0 0 0-1.92-1.74 8.77 8.77 0 0 0-3.39-.53 7.91 7.91 0 0 0-3 .49 4.37 4.37 0 0 0-1.87 1.47 6.46 6.46 0 0 0-1 2.63 36.84 36.84 0 0 0-.49 3.87l-7-.62a49 49 0 0 1 .85-6.5 11.35 11.35 0 0 1 2-4.59 7.88 7.88 0 0 1 3.87-2.67 21 21 0 0 1 6.59-.85 21.75 21.75 0 0 1 7.48 1.07 9.51 9.51 0 0 1 4.35 3.21 12.46 12.46 0 0 1 2.14 5.44 47 47 0 0 1 .53 7.53v22.54q0 2.58 1 3.21a4.27 4.27 0 0 0 2.27.62zm-10.69-24.24a57.82 57.82 0 0 0-6.86.76 8 8 0 0 0-3.92 1.69 6 6 0 0 0-1.78 3.34 29.08 29.08 0 0 0-.45 5.7 12.5 12.5 0 0 0 1 5.61q1 1.87 3.74 1.87a7.07 7.07 0 0 0 5.48-2.18 12.91 12.91 0 0 0 2.81-6.46zM366.73 66.29a10.82 10.82 0 0 1-3.83 4.1 12.3 12.3 0 0 1-6.95 1.78 9.84 9.84 0 0 1-7.48-2.81q-2.67-2.81-2.67-9V29.31h-3.65l.62-6h3V11.14l8.37-1.43v13.63h12.12l-.71 6h-11.4v30a6.74 6.74 0 0 0 1.25 4.32 3.48 3.48 0 0 0 2.67 1.56 4.37 4.37 0 0 0 3.07-1 10 10 0 0 0 2.09-3.07z"/><rect class="cls-2" y="24.56" width="15.84" height="50.13" rx="7.92" ry="7.92"/><rect class="cls-3" x="26.73" y="3.77" width="15.84" height="70.92" rx="7.92" ry="7.92"/><rect class="cls-4" x="53.46" y="36.44" width="15.84" height="38.25" rx="7.92" ry="7.92"/></g></g></svg>